<mxfile host="app.diagrams.net" modified="2024-03-02T10:09:43.232Z" agent="Mozilla/5.0 (X11; RED OS; Linux x86_64) AppleWebKit/537.36 (KHTML, like Gecko) Chrome/94.0.4606.81 Safari/537.36 (Chromium GOST)" version="24.0.0" etag="ghVLYGvGgrq8keUF2x8u" type="github">
  <diagram name="Страница — 1" id="0-XHvVw8oVPMXeVgQcN1">
    <mxGraphModel>
      <root>
        <mxCell id="0" />
        <mxCell id="1" parent="0" />
      </root>
    </mxGraphModel>
  </diagram>
</mxfile>
